<mxfile host="drawio-plugin" modified="2025-03-12T11:42:50.534Z" agent="Mozilla/5.0 (Macintosh; Intel Mac OS X 10_15_7) AppleWebKit/537.36 (KHTML, like Gecko) Chrome/122.0.0.0 Safari/537.36" etag="5rGk9mTz5rVuNKhswMku" version="22.1.22" type="embed">
  <diagram id="_mS9qpGjMs0Rn5t0xusC" name="Page-1">
    <mxGraphModel dx="785" dy="408" grid="1" gridSize="10" guides="1" tooltips="1" connect="1" arrows="1" fold="1" page="1" pageScale="1" pageWidth="850" pageHeight="1100" math="0" shadow="0">
      <root>
        <mxCell id="0" />
        <mxCell id="1" parent="0" />
        <mxCell id="7" value="" style="edgeStyle=orthogonalEdgeStyle;rounded=0;orthogonalLoop=1;jettySize=auto;html=1;" parent="1" source="2" target="5" edge="1">
          <mxGeometry relative="1" as="geometry" />
        </mxCell>
        <mxCell id="2" value="(app)" style="rounded=1;whiteSpace=wrap;html=1;dashed=1;" parent="1" vertex="1">
          <mxGeometry x="120" y="120" width="80" height="40" as="geometry" />
        </mxCell>
        <mxCell id="3" value="public routes &lt;br&gt;(without login)" style="text;html=1;strokeColor=none;fillColor=none;align=center;verticalAlign=middle;whiteSpace=wrap;rounded=0;fontSize=14;fontStyle=1" parent="1" vertex="1">
          <mxGeometry x="70" y="40" width="180" height="30" as="geometry" />
        </mxCell>
        <mxCell id="4" value="segment[0]" style="text;html=1;strokeColor=none;fillColor=none;align=center;verticalAlign=middle;whiteSpace=wrap;rounded=0;" parent="1" vertex="1">
          <mxGeometry x="40" y="125" width="60" height="30" as="geometry" />
        </mxCell>
        <mxCell id="11" value="" style="edgeStyle=orthogonalEdgeStyle;rounded=0;orthogonalLoop=1;jettySize=auto;html=1;" parent="1" source="5" target="8" edge="1">
          <mxGeometry relative="1" as="geometry" />
        </mxCell>
        <mxCell id="5" value="(public)" style="rounded=1;whiteSpace=wrap;html=1;dashed=1;fillColor=#f5f5f5;fontColor=#333333;strokeColor=#666666;" parent="1" vertex="1">
          <mxGeometry x="120" y="200" width="80" height="40" as="geometry" />
        </mxCell>
        <mxCell id="6" value="segment[1]" style="text;html=1;strokeColor=none;fillColor=none;align=center;verticalAlign=middle;whiteSpace=wrap;rounded=0;" parent="1" vertex="1">
          <mxGeometry x="40" y="205" width="60" height="30" as="geometry" />
        </mxCell>
        <mxCell id="26" style="edgeStyle=orthogonalEdgeStyle;rounded=0;orthogonalLoop=1;jettySize=auto;html=1;exitX=1;exitY=0.5;exitDx=0;exitDy=0;entryX=0;entryY=0;entryDx=0;entryDy=0;" parent="1" source="8" target="24" edge="1">
          <mxGeometry relative="1" as="geometry">
            <Array as="points">
              <mxPoint x="240" y="300" />
              <mxPoint x="240" y="360" />
            </Array>
          </mxGeometry>
        </mxCell>
        <mxCell id="31" value="" style="edgeStyle=orthogonalEdgeStyle;rounded=0;orthogonalLoop=1;jettySize=auto;html=1;" parent="1" source="8" target="29" edge="1">
          <mxGeometry relative="1" as="geometry" />
        </mxCell>
        <mxCell id="8" value="login&lt;br&gt;&lt;font style=&quot;font-size: 9px;&quot;&gt;Screen&lt;/font&gt;" style="rounded=1;whiteSpace=wrap;html=1;fillColor=#dae8fc;strokeColor=#6c8ebf;" parent="1" vertex="1">
          <mxGeometry x="120" y="280" width="80" height="40" as="geometry" />
        </mxCell>
        <mxCell id="9" value="segment[2]" style="text;html=1;strokeColor=none;fillColor=none;align=center;verticalAlign=middle;whiteSpace=wrap;rounded=0;fontColor=#007FFF;" parent="1" vertex="1">
          <mxGeometry x="40" y="285" width="60" height="30" as="geometry" />
        </mxCell>
        <mxCell id="10" value="login user" style="text;html=1;strokeColor=none;fillColor=none;align=center;verticalAlign=middle;whiteSpace=wrap;rounded=0;fontSize=8;fontStyle=2" parent="1" vertex="1">
          <mxGeometry x="130" y="240" width="110" height="30" as="geometry" />
        </mxCell>
        <mxCell id="12" value="protected routes&lt;br&gt;(only with login)" style="text;html=1;strokeColor=none;fillColor=none;align=center;verticalAlign=middle;whiteSpace=wrap;rounded=0;fontSize=14;fontStyle=1" parent="1" vertex="1">
          <mxGeometry x="430" y="40" width="180" height="30" as="geometry" />
        </mxCell>
        <mxCell id="13" value="" style="edgeStyle=orthogonalEdgeStyle;rounded=0;orthogonalLoop=1;jettySize=auto;html=1;" parent="1" source="14" target="16" edge="1">
          <mxGeometry relative="1" as="geometry" />
        </mxCell>
        <mxCell id="14" value="(app)" style="rounded=1;whiteSpace=wrap;html=1;dashed=1;" parent="1" vertex="1">
          <mxGeometry x="480" y="120" width="80" height="40" as="geometry" />
        </mxCell>
        <mxCell id="15" value="segment[0]" style="text;html=1;strokeColor=none;fillColor=none;align=center;verticalAlign=middle;whiteSpace=wrap;rounded=0;" parent="1" vertex="1">
          <mxGeometry x="400" y="125" width="60" height="30" as="geometry" />
        </mxCell>
        <mxCell id="21" value="" style="edgeStyle=orthogonalEdgeStyle;rounded=0;orthogonalLoop=1;jettySize=auto;html=1;" parent="1" source="16" edge="1">
          <mxGeometry relative="1" as="geometry">
            <mxPoint x="520" y="280" as="targetPoint" />
          </mxGeometry>
        </mxCell>
        <mxCell id="16" value="(public)" style="rounded=1;whiteSpace=wrap;html=1;dashed=1;fillColor=#f5f5f5;fontColor=#333333;strokeColor=#666666;" parent="1" vertex="1">
          <mxGeometry x="480" y="200" width="80" height="40" as="geometry" />
        </mxCell>
        <mxCell id="17" value="segment[1]" style="text;html=1;strokeColor=none;fillColor=none;align=center;verticalAlign=middle;whiteSpace=wrap;rounded=0;" parent="1" vertex="1">
          <mxGeometry x="400" y="205" width="60" height="30" as="geometry" />
        </mxCell>
        <mxCell id="19" value="segment[2]" style="text;html=1;strokeColor=none;fillColor=none;align=center;verticalAlign=middle;whiteSpace=wrap;rounded=0;" parent="1" vertex="1">
          <mxGeometry x="400" y="285" width="60" height="30" as="geometry" />
        </mxCell>
        <mxCell id="25" value="" style="edgeStyle=orthogonalEdgeStyle;rounded=0;orthogonalLoop=1;jettySize=auto;html=1;" parent="1" source="22" target="24" edge="1">
          <mxGeometry relative="1" as="geometry" />
        </mxCell>
        <mxCell id="22" value="(drawer)" style="rounded=1;whiteSpace=wrap;html=1;dashed=1;fillColor=#e1d5e7;strokeColor=#9673a6;" parent="1" vertex="1">
          <mxGeometry x="480" y="280" width="80" height="40" as="geometry" />
        </mxCell>
        <mxCell id="23" value="segment[3]" style="text;html=1;strokeColor=none;fillColor=none;align=center;verticalAlign=middle;whiteSpace=wrap;rounded=0;fontColor=#007FFF;" parent="1" vertex="1">
          <mxGeometry x="400" y="365" width="60" height="30" as="geometry" />
        </mxCell>
        <mxCell id="39" value="" style="edgeStyle=orthogonalEdgeStyle;rounded=0;orthogonalLoop=1;jettySize=auto;html=1;" parent="1" source="24" target="38" edge="1">
          <mxGeometry relative="1" as="geometry" />
        </mxCell>
        <mxCell id="24" value="(tabs)&lt;br&gt;&lt;font style=&quot;font-size: 9px;&quot;&gt;Dashboard Screen&lt;/font&gt;" style="rounded=1;whiteSpace=wrap;html=1;fillColor=#f8cecc;strokeColor=#b85450;" parent="1" vertex="1">
          <mxGeometry x="480" y="360" width="80" height="40" as="geometry" />
        </mxCell>
        <mxCell id="27" value="authenticate user" style="text;html=1;strokeColor=none;fillColor=none;align=center;verticalAlign=middle;whiteSpace=wrap;rounded=0;fontSize=8;" parent="1" vertex="1">
          <mxGeometry x="270" y="330" width="110" height="30" as="geometry" />
        </mxCell>
        <mxCell id="33" style="edgeStyle=orthogonalEdgeStyle;rounded=0;orthogonalLoop=1;jettySize=auto;html=1;exitX=0.5;exitY=1;exitDx=0;exitDy=0;entryX=0.75;entryY=1;entryDx=0;entryDy=0;" parent="1" source="29" target="8" edge="1">
          <mxGeometry relative="1" as="geometry">
            <Array as="points">
              <mxPoint x="160" y="480" />
              <mxPoint x="220" y="480" />
              <mxPoint x="220" y="360" />
              <mxPoint x="180" y="360" />
            </Array>
          </mxGeometry>
        </mxCell>
        <mxCell id="35" style="edgeStyle=orthogonalEdgeStyle;rounded=0;orthogonalLoop=1;jettySize=auto;html=1;exitX=0.25;exitY=1;exitDx=0;exitDy=0;" parent="1" source="29" edge="1">
          <mxGeometry relative="1" as="geometry">
            <mxPoint x="140" y="560" as="targetPoint" />
          </mxGeometry>
        </mxCell>
        <mxCell id="29" value="legal-modal&lt;br&gt;&lt;font style=&quot;font-size: 9px;&quot;&gt;Screen&lt;/font&gt;" style="rounded=1;whiteSpace=wrap;html=1;fillColor=#dae8fc;strokeColor=#6c8ebf;" parent="1" vertex="1">
          <mxGeometry x="120" y="400" width="80" height="40" as="geometry" />
        </mxCell>
        <mxCell id="30" value="segment[2]" style="text;html=1;strokeColor=none;fillColor=none;align=center;verticalAlign=middle;whiteSpace=wrap;rounded=0;fontColor=#007FFF;" parent="1" vertex="1">
          <mxGeometry x="40" y="405" width="60" height="30" as="geometry" />
        </mxCell>
        <mxCell id="32" value="open lega-modal screen" style="text;html=1;strokeColor=none;fillColor=none;align=center;verticalAlign=middle;whiteSpace=wrap;rounded=0;fontSize=8;fontStyle=2" parent="1" vertex="1">
          <mxGeometry x="50" y="350" width="110" height="30" as="geometry" />
        </mxCell>
        <mxCell id="34" value="close legal-modal screen" style="text;html=1;strokeColor=none;fillColor=none;align=center;verticalAlign=middle;whiteSpace=wrap;rounded=0;fontSize=8;fontStyle=2" parent="1" vertex="1">
          <mxGeometry x="220" y="410" width="110" height="30" as="geometry" />
        </mxCell>
        <mxCell id="36" value="" style="ellipse;whiteSpace=wrap;html=1;aspect=fixed;labelBackgroundColor=none;fillColor=#000000;" parent="1" vertex="1">
          <mxGeometry x="120" y="560" width="40" height="40" as="geometry" />
        </mxCell>
        <mxCell id="37" value="open external url" style="text;html=1;strokeColor=none;fillColor=none;align=center;verticalAlign=middle;whiteSpace=wrap;rounded=0;fontSize=8;fontStyle=2" parent="1" vertex="1">
          <mxGeometry x="40" y="490" width="110" height="30" as="geometry" />
        </mxCell>
        <mxCell id="59" style="edgeStyle=orthogonalEdgeStyle;rounded=0;orthogonalLoop=1;jettySize=auto;html=1;exitX=0;exitY=1;exitDx=0;exitDy=0;" parent="1" source="38" target="58" edge="1">
          <mxGeometry relative="1" as="geometry" />
        </mxCell>
        <mxCell id="61" style="edgeStyle=orthogonalEdgeStyle;rounded=0;orthogonalLoop=1;jettySize=auto;html=1;exitX=1;exitY=1;exitDx=0;exitDy=0;entryX=0.5;entryY=0;entryDx=0;entryDy=0;" parent="1" source="38" target="60" edge="1">
          <mxGeometry relative="1" as="geometry" />
        </mxCell>
        <mxCell id="38" value="" style="rhombus;whiteSpace=wrap;html=1;" parent="1" vertex="1">
          <mxGeometry x="490" y="470" width="60" height="55" as="geometry" />
        </mxCell>
        <mxCell id="41" value="timetable&lt;br&gt;&lt;font style=&quot;font-size: 9px;&quot;&gt;Screen&lt;/font&gt;" style="rounded=1;whiteSpace=wrap;html=1;fillColor=#dae8fc;strokeColor=#6c8ebf;fontStyle=0" parent="1" vertex="1">
          <mxGeometry x="495" y="680" width="80" height="60" as="geometry" />
        </mxCell>
        <mxCell id="75" style="edgeStyle=orthogonalEdgeStyle;rounded=0;orthogonalLoop=1;jettySize=auto;html=1;exitX=0.75;exitY=0;exitDx=0;exitDy=0;entryX=0.75;entryY=1;entryDx=0;entryDy=0;" edge="1" parent="1" source="45" target="49">
          <mxGeometry relative="1" as="geometry" />
        </mxCell>
        <mxCell id="45" value="notification&lt;br&gt;&lt;font style=&quot;font-size: 9px;&quot;&gt;Screen&lt;/font&gt;" style="rounded=1;whiteSpace=wrap;html=1;fillColor=#dae8fc;strokeColor=#6c8ebf;fontStyle=0" parent="1" vertex="1">
          <mxGeometry x="495" y="880" width="80" height="60" as="geometry" />
        </mxCell>
        <mxCell id="47" value="initial route (Dashboard)" style="text;html=1;strokeColor=none;fillColor=none;align=left;verticalAlign=middle;whiteSpace=wrap;rounded=0;fontSize=8;fontStyle=1" parent="1" vertex="1">
          <mxGeometry x="530" y="335" width="110" height="30" as="geometry" />
        </mxCell>
        <mxCell id="50" value="" style="edgeStyle=orthogonalEdgeStyle;rounded=0;orthogonalLoop=1;jettySize=auto;html=1;" parent="1" source="49" target="45" edge="1">
          <mxGeometry relative="1" as="geometry" />
        </mxCell>
        <mxCell id="49" value="(stack)&lt;br&gt;tasks/index&lt;br&gt;&lt;font style=&quot;font-size: 9px;&quot;&gt;Task Screen&lt;/font&gt;" style="rounded=1;whiteSpace=wrap;html=1;fillColor=#d5e8d4;strokeColor=#82b366;fontStyle=0;dashed=1;" parent="1" vertex="1">
          <mxGeometry x="495" y="780" width="80" height="60" as="geometry" />
        </mxCell>
        <mxCell id="63" style="edgeStyle=orthogonalEdgeStyle;rounded=0;orthogonalLoop=1;jettySize=auto;html=1;exitX=0.5;exitY=1;exitDx=0;exitDy=0;entryX=0;entryY=0.5;entryDx=0;entryDy=0;" parent="1" source="58" target="41" edge="1">
          <mxGeometry relative="1" as="geometry" />
        </mxCell>
        <mxCell id="66" style="edgeStyle=orthogonalEdgeStyle;rounded=0;orthogonalLoop=1;jettySize=auto;html=1;exitX=0;exitY=0.5;exitDx=0;exitDy=0;entryX=0;entryY=0.75;entryDx=0;entryDy=0;" parent="1" source="58" target="24" edge="1">
          <mxGeometry relative="1" as="geometry" />
        </mxCell>
        <mxCell id="69" style="edgeStyle=orthogonalEdgeStyle;rounded=0;orthogonalLoop=1;jettySize=auto;html=1;exitX=0.5;exitY=1;exitDx=0;exitDy=0;entryX=0;entryY=0.5;entryDx=0;entryDy=0;" parent="1" source="58" target="45" edge="1">
          <mxGeometry relative="1" as="geometry" />
        </mxCell>
        <mxCell id="58" value="Tabs" style="rhombus;whiteSpace=wrap;html=1;fillColor=#f8cecc;strokeColor=#b85450;" parent="1" vertex="1">
          <mxGeometry x="360" y="560" width="80" height="80" as="geometry" />
        </mxCell>
        <mxCell id="64" style="edgeStyle=orthogonalEdgeStyle;rounded=0;orthogonalLoop=1;jettySize=auto;html=1;exitX=0.5;exitY=1;exitDx=0;exitDy=0;entryX=1;entryY=0.5;entryDx=0;entryDy=0;" parent="1" source="60" target="41" edge="1">
          <mxGeometry relative="1" as="geometry" />
        </mxCell>
        <mxCell id="65" style="edgeStyle=orthogonalEdgeStyle;rounded=0;orthogonalLoop=1;jettySize=auto;html=1;exitX=1;exitY=0.5;exitDx=0;exitDy=0;entryX=1;entryY=0.75;entryDx=0;entryDy=0;" parent="1" source="60" target="24" edge="1">
          <mxGeometry relative="1" as="geometry" />
        </mxCell>
        <mxCell id="68" style="edgeStyle=orthogonalEdgeStyle;rounded=0;orthogonalLoop=1;jettySize=auto;html=1;exitX=0.5;exitY=1;exitDx=0;exitDy=0;entryX=1;entryY=0.5;entryDx=0;entryDy=0;" parent="1" source="60" target="49" edge="1">
          <mxGeometry relative="1" as="geometry" />
        </mxCell>
        <mxCell id="84" style="edgeStyle=orthogonalEdgeStyle;rounded=0;orthogonalLoop=1;jettySize=auto;html=1;exitX=0.5;exitY=1;exitDx=0;exitDy=0;entryX=1;entryY=0.5;entryDx=0;entryDy=0;" edge="1" parent="1" source="60" target="79">
          <mxGeometry relative="1" as="geometry" />
        </mxCell>
        <mxCell id="85" style="edgeStyle=orthogonalEdgeStyle;rounded=0;orthogonalLoop=1;jettySize=auto;html=1;exitX=0.5;exitY=1;exitDx=0;exitDy=0;entryX=1;entryY=0.5;entryDx=0;entryDy=0;" edge="1" parent="1" source="60" target="80">
          <mxGeometry relative="1" as="geometry" />
        </mxCell>
        <mxCell id="87" style="edgeStyle=orthogonalEdgeStyle;rounded=0;orthogonalLoop=1;jettySize=auto;html=1;exitX=0;exitY=0.5;exitDx=0;exitDy=0;entryX=1;entryY=1;entryDx=0;entryDy=0;" edge="1" parent="1" source="60" target="8">
          <mxGeometry relative="1" as="geometry">
            <Array as="points">
              <mxPoint x="620" y="540" />
              <mxPoint x="200" y="540" />
            </Array>
          </mxGeometry>
        </mxCell>
        <mxCell id="60" value="Drawer" style="rhombus;whiteSpace=wrap;html=1;fillColor=#e1d5e7;strokeColor=#9673a6;" parent="1" vertex="1">
          <mxGeometry x="620" y="560" width="80" height="80" as="geometry" />
        </mxCell>
        <mxCell id="70" value="segment[4]" style="text;html=1;strokeColor=none;fillColor=none;align=center;verticalAlign=middle;whiteSpace=wrap;rounded=0;fontColor=#007FFF;" parent="1" vertex="1">
          <mxGeometry x="300" y="695" width="60" height="30" as="geometry" />
        </mxCell>
        <mxCell id="76" value="segment[4]" style="text;html=1;strokeColor=none;fillColor=none;align=center;verticalAlign=middle;whiteSpace=wrap;rounded=0;fontColor=#007FFF;" vertex="1" parent="1">
          <mxGeometry x="300" y="795" width="60" height="30" as="geometry" />
        </mxCell>
        <mxCell id="77" value="segment[5]" style="text;html=1;strokeColor=none;fillColor=none;align=center;verticalAlign=middle;whiteSpace=wrap;rounded=0;fontColor=#007FFF;" vertex="1" parent="1">
          <mxGeometry x="300" y="895" width="60" height="30" as="geometry" />
        </mxCell>
        <mxCell id="78" value="settings&lt;br&gt;&lt;font style=&quot;font-size: 9px;&quot;&gt;Screen&lt;/font&gt;" style="rounded=1;whiteSpace=wrap;html=1;fillColor=#dae8fc;strokeColor=#6c8ebf;fontStyle=0" vertex="1" parent="1">
          <mxGeometry x="495" y="980" width="80" height="60" as="geometry" />
        </mxCell>
        <mxCell id="86" style="edgeStyle=orthogonalEdgeStyle;rounded=0;orthogonalLoop=1;jettySize=auto;html=1;exitX=0;exitY=0.5;exitDx=0;exitDy=0;entryX=0.5;entryY=1;entryDx=0;entryDy=0;" edge="1" parent="1" source="79" target="36">
          <mxGeometry relative="1" as="geometry" />
        </mxCell>
        <mxCell id="79" value="external links" style="rounded=1;whiteSpace=wrap;html=1;fillColor=#dae8fc;strokeColor=#6c8ebf;fontStyle=0" vertex="1" parent="1">
          <mxGeometry x="495" y="1060" width="80" height="60" as="geometry" />
        </mxCell>
        <mxCell id="80" value="contact&lt;br&gt;&lt;font style=&quot;font-size: 9px;&quot;&gt;Screen&lt;/font&gt;" style="rounded=1;whiteSpace=wrap;html=1;fillColor=#dae8fc;strokeColor=#6c8ebf;fontStyle=0" vertex="1" parent="1">
          <mxGeometry x="495" y="1140" width="80" height="60" as="geometry" />
        </mxCell>
        <mxCell id="83" style="edgeStyle=orthogonalEdgeStyle;rounded=0;orthogonalLoop=1;jettySize=auto;html=1;entryX=1;entryY=0.5;entryDx=0;entryDy=0;exitX=0.5;exitY=1;exitDx=0;exitDy=0;" edge="1" parent="1" source="60" target="78">
          <mxGeometry relative="1" as="geometry" />
        </mxCell>
        <mxCell id="88" value="logout&amp;nbsp; user" style="text;html=1;strokeColor=none;fillColor=none;align=center;verticalAlign=middle;whiteSpace=wrap;rounded=0;fontSize=8;" vertex="1" parent="1">
          <mxGeometry x="510" y="540" width="110" height="30" as="geometry" />
        </mxCell>
        <mxCell id="89" value="segment[3]" style="text;html=1;strokeColor=none;fillColor=none;align=center;verticalAlign=middle;whiteSpace=wrap;rounded=0;fontColor=#007FFF;" vertex="1" parent="1">
          <mxGeometry x="300" y="995" width="60" height="30" as="geometry" />
        </mxCell>
        <mxCell id="90" value="segment[3]" style="text;html=1;strokeColor=none;fillColor=none;align=center;verticalAlign=middle;whiteSpace=wrap;rounded=0;fontColor=#007FFF;" vertex="1" parent="1">
          <mxGeometry x="300" y="1155" width="60" height="30" as="geometry" />
        </mxCell>
      </root>
    </mxGraphModel>
  </diagram>
</mxfile>
